<?xml version="1.0" encoding="UTF-8"?>
<svg id="uuid-4d4d14ba-dd5a-407a-9563-c381563ad36d" data-name="Camada 1" xmlns="http://www.w3.org/2000/svg" xmlns:xlink="http://www.w3.org/1999/xlink" viewBox="0 0 1080 1080">
  <defs>
    <linearGradient id="uuid-83812329-e283-418d-90e2-f133c67cabe9" data-name="Gradiente sem nome 75" x1="-215.00056968478566" y1="1187.065242453305473" x2="366.321476296294236" y2="1942.894445340732545" gradientTransform="translate(448 -1052)" gradientUnits="userSpaceOnUse">
      <stop offset="0" stop-color="#42bbcb"/>
      <stop offset=".011219861093631" stop-color="#34bacc"/>
      <stop offset=".122372219601996" stop-color="#1e4e83"/>
      <stop offset=".341816011539176" stop-color="#242650"/>
      <stop offset=".62089532268934" stop-color="#262f64"/>
      <stop offset=".800126067863023" stop-color="#1f1e41"/>
      <stop offset=".867984614096397" stop-color="#253061"/>
      <stop offset=".954156229318666" stop-color="#1b5382"/>
      <stop offset="1" stop-color="#2a6e98"/>
    </linearGradient>
    <linearGradient id="uuid-d7b844d4-a8d2-4211-b04f-c68ba2dbf626" data-name="Gradiente sem nome 984" x1="-189.529240220297652" y1="1485.639706109324834" x2="-187.733032491423074" y2="1793.198727014577116" gradientTransform="translate(448 -1052)" gradientUnits="userSpaceOnUse">
      <stop offset="0" stop-color="#eddc21"/>
      <stop offset=".043478260040283" stop-color="#ecdd1a"/>
      <stop offset=".217391300201416" stop-color="#c0c945"/>
      <stop offset=".332015800476074" stop-color="#bccb45"/>
      <stop offset=".430830039978027" stop-color="#d6d129"/>
      <stop offset=".596837921142578" stop-color="#93bb5f"/>
      <stop offset=".636363639831543" stop-color="#b3c947"/>
      <stop offset=".667984161376953" stop-color="#acc74a"/>
      <stop offset=".841897277832031" stop-color="#2fb6b3"/>
      <stop offset="1" stop-color="#4bbdcb"/>
    </linearGradient>
    <linearGradient id="uuid-ae408017-2df2-4b25-b422-dec7443a64ae" data-name="Gradiente sem nome 984" x1="-267.082135548326733" y1="1642.032912880280492" x2="-266.907558413909726" y2="1671.925208560014198" xlink:href="#uuid-d7b844d4-a8d2-4211-b04f-c68ba2dbf626"/>
    <linearGradient id="uuid-c6229dab-88c6-444b-a97a-2906d2cfa2f1" data-name="Gradiente sem nome 988" x1="-17.846774504560017" y1="1815.127365282616665" x2="169.65298138605857" y2="1950.069984572080557" gradientTransform="translate(448 -1052)" gradientUnits="userSpaceOnUse">
      <stop offset="0" stop-color="#252c5a"/>
      <stop offset=".563953475952149" stop-color="#1fa3b8"/>
      <stop offset="1" stop-color="#4bbdc9"/>
    </linearGradient>
    <linearGradient id="uuid-7a99321e-1328-4b42-bbad-d4c158199206" data-name="Gradiente sem nome 989" x1="43.251027982365486" y1="1927.370569009863175" x2="252.283981946145445" y2="2027.357546227379544" gradientTransform="translate(448 -1052)" gradientUnits="userSpaceOnUse">
      <stop offset="0" stop-color="#22254b"/>
      <stop offset=".076470589637756" stop-color="#23264f"/>
      <stop offset=".170588245391846" stop-color="#1a4275"/>
      <stop offset=".258823547363281" stop-color="#232f5d"/>
      <stop offset=".341176490783691" stop-color="#253d74"/>
      <stop offset=".376470603942871" stop-color="#202a50"/>
      <stop offset=".411764717102051" stop-color="#1f274b"/>
      <stop offset=".611764717102051" stop-color="#233364"/>
      <stop offset="1" stop-color="#2588a6"/>
    </linearGradient>
    <linearGradient id="uuid-6dbdc87b-96a7-484c-b1e0-462ed5a64836" data-name="Gradiente sem nome 990" x1="303.460086390862671" y1="1655.943537597040631" x2="419.558560886792463" y2="1829.627359242923831" gradientTransform="translate(448 -1052)" gradientUnits="userSpaceOnUse">
      <stop offset="0" stop-color="#242854"/>
      <stop offset="1" stop-color="#2284a8"/>
    </linearGradient>
    <linearGradient id="uuid-3c365881-bc9d-4ab3-b9f3-ebe9bce23b0a" data-name="Gradiente sem nome 991" x1="406.56158382799731" y1="1761.324572075744072" x2="307.978642769218709" y2="1821.641477953825643" gradientTransform="translate(448 -1052)" gradientUnits="userSpaceOnUse">
      <stop offset="0" stop-color="#439a96"/>
      <stop offset=".847058868408203" stop-color="#c0cb38"/>
      <stop offset="1" stop-color="#cbcc42"/>
    </linearGradient>
    <linearGradient id="uuid-dc99e0a8-1767-43d3-a32d-def52dbd2bcb" data-name="Gradiente sem nome 992" x1="486.389414639372262" y1="1773.38574162531404" x2="575.869729276177281" y2="1833.260378064990164" gradientTransform="translate(448 -1052)" gradientUnits="userSpaceOnUse">
      <stop offset="0" stop-color="#212b53"/>
      <stop offset=".25" stop-color="#252d5c"/>
      <stop offset=".9125" stop-color="#1880a5"/>
      <stop offset="1" stop-color="#27819b"/>
    </linearGradient>
    <linearGradient id="uuid-8b70554e-9eda-461c-b952-088ade9cc4d2" data-name="Gradiente sem nome 993" x1="-186.402784766592958" y1="1711.992972595875472" x2="-151.187581133543489" y2="1934.33024404333014" gradientTransform="translate(448 -1052)" gradientUnits="userSpaceOnUse">
      <stop offset="0" stop-color="#212d59"/>
      <stop offset=".350877189636231" stop-color="#232f5c"/>
      <stop offset="1" stop-color="#2bb0c5"/>
    </linearGradient>
    <linearGradient id="uuid-af98e8bf-66d2-4bd4-9f0e-41727d7b1553" data-name="Gradiente sem nome 998" x1="-435.98409241733043" y1="1765.840103995316895" x2="-337.241608739578623" y2="1777.587033393520187" gradientTransform="translate(448 -1052)" gradientUnits="userSpaceOnUse">
      <stop offset="0" stop-color="#46bccc"/>
      <stop offset=".082191781997681" stop-color="#47bcca"/>
      <stop offset="1" stop-color="#187599"/>
    </linearGradient>
    <linearGradient id="uuid-2b394426-1d69-416d-a68d-dae45abeac96" data-name="Gradiente sem nome 999" x1="-157.151582453774608" y1="1617.523172613071438" x2="-332.944404318064585" y2="1665.332623870480575" gradientTransform="translate(448 -1052)" gradientUnits="userSpaceOnUse">
      <stop offset="0" stop-color="#233968"/>
      <stop offset=".487804870605469" stop-color="#256172"/>
      <stop offset="1" stop-color="#5ea078"/>
    </linearGradient>
    <linearGradient id="uuid-433a5045-0de8-4cb3-a6cd-16c3fcb075dc" data-name="Gradiente sem nome 983" x1="37.350055248558419" y1="1255.949916993718944" x2="209.672126311437296" y2="1419.416188884226813" gradientTransform="translate(448 -1052)" gradientUnits="userSpaceOnUse">
      <stop offset="0" stop-color="#eae021"/>
      <stop offset=".018181817531586" stop-color="#f2e00e"/>
      <stop offset=".21212121963501" stop-color="#eadc1c"/>
      <stop offset=".418181800842285" stop-color="#6cb880"/>
      <stop offset=".593939437866211" stop-color="#20a3ad"/>
      <stop offset=".896969680786133" stop-color="#25759d"/>
      <stop offset="1" stop-color="#2c567f"/>
    </linearGradient>
    <linearGradient id="uuid-c4b15665-e485-4707-9df2-3c11bf52bfc8" data-name="Gradiente sem nome 985" x1="-259.170573360772323" y1="1319.242319552135086" x2="-37.61067560598363" y2="1447.204243195471008" gradientTransform="translate(448 -1052)" gradientUnits="userSpaceOnUse">
      <stop offset="0" stop-color="#37b9c6"/>
      <stop offset="1" stop-color="#242650"/>
    </linearGradient>
    <linearGradient id="uuid-9b7085ca-2200-4d4e-83e7-89b30e8590a0" data-name="Gradiente sem nome 986" x1="-62.500382324933526" y1="1117.20073124685041" x2="55.099062193829866" y2="1247.772838926360691" gradientTransform="translate(448 -1052)" gradientUnits="userSpaceOnUse">
      <stop offset="0" stop-color="#54bec6"/>
      <stop offset=".037878789901733" stop-color="#4ebece"/>
      <stop offset=".189393939971924" stop-color="#36b9c9"/>
      <stop offset="1" stop-color="#1f506c"/>
    </linearGradient>
    <linearGradient id="uuid-5f3288c6-7208-48cb-99ab-782d53be33c6" data-name="Gradiente sem nome 994" x1="287.988894310414253" y1="1383.886968161988989" x2="465.166140308316812" y2="1430.255967511111521" gradientTransform="translate(448 -1052)" gradientUnits="userSpaceOnUse">
      <stop offset="0" stop-color="#242650"/>
      <stop offset=".259842510223389" stop-color="#242b57"/>
      <stop offset="1" stop-color="#1e97af"/>
    </linearGradient>
    <linearGradient id="uuid-4d7cfed6-b62e-4c34-ac4c-7ec9fd54d597" data-name="Gradiente sem nome 996" x1="226.70762080735949" y1="1336.985973825059773" x2="285.936156055692152" y2="1384.190235737374451" gradientTransform="translate(448 -1052)" gradientUnits="userSpaceOnUse">
      <stop offset="0" stop-color="#dadd40"/>
      <stop offset=".211538467407227" stop-color="#d9d529"/>
      <stop offset=".634615364074707" stop-color="#72ba79"/>
      <stop offset="1" stop-color="#3aab9c"/>
    </linearGradient>
    <linearGradient id="uuid-c9536baa-eecc-4b78-94dd-49652d3ca36b" data-name="Gradiente sem nome 997" x1="-76.964614829981656" y1="1316.274481354990712" x2="-85.240719891284755" y2="1493.281179418710053" gradientTransform="translate(448 -1052)" gradientUnits="userSpaceOnUse">
      <stop offset="0" stop-color="#f1df1a"/>
      <stop offset=".246268653869629" stop-color="#ebdd19"/>
      <stop offset=".365671615600586" stop-color="#ccd036"/>
      <stop offset=".604477577209473" stop-color="#4cb092"/>
      <stop offset=".701492538452149" stop-color="#2a9ea4"/>
      <stop offset="1" stop-color="#1e4b7b"/>
    </linearGradient>
    <linearGradient id="uuid-e5f965b8-4ab0-4287-8ccd-1313d242e70e" data-name="Gradiente sem nome 1000" x1="500.28166869665165" y1="1257.603349842513126" x2="411.077563456669054" y2="1299.926031732078627" gradientTransform="translate(448 -1052)" gradientUnits="userSpaceOnUse">
      <stop offset="0" stop-color="#177399"/>
      <stop offset=".726027374267578" stop-color="#253365"/>
      <stop offset="1" stop-color="#1f2e54"/>
    </linearGradient>
    <radialGradient id="uuid-6a6bf281-03b6-43d9-8634-7ccf0973399c" data-name="Gradiente sem nome 1046" cx="-448.926874842458346" cy="197.355763523353744" fx="-448.926874842458346" fy="197.355763523353744" r="12.27539393258167" gradientTransform="translate(-1428.334972249958355 1384.890483102079543) rotate(178.574074344370558) scale(4.430757779857725 3.895218681318115) skewX(-.09847460339723)" gradientUnits="userSpaceOnUse">
      <stop offset="0" stop-color="#42bbcb"/>
      <stop offset="0" stop-color="#34bacc"/>
      <stop offset="0" stop-color="#1e4e83"/>
      <stop offset="0" stop-color="#05816d"/>
      <stop offset="0" stop-color="#364b77"/>
      <stop offset="0" stop-color="#242650"/>
      <stop offset=".81293164395311" stop-color="#1f1e41" stop-opacity=".899999976158142"/>
    </radialGradient>
    <radialGradient id="uuid-1c229d57-0d26-41e7-9f13-766a5f9d491a" data-name="Gradiente sem nome 1046" cx="27.602147175050959" cy="81.873356871339638" fx="27.602147175050959" fy="81.873356871339638" r="14.109847245824247" gradientTransform="translate(385.474210993091447 252.453564282038769) rotate(-1.425923010280992) scale(4.866956149933547 3.592479879022518) skewX(-.08267726362663)" xlink:href="#uuid-6a6bf281-03b6-43d9-8634-7ccf0973399c"/>
  </defs>
  <g>
    <path d="M1062.731163096224918,439.845968879675638,684.983202806091867,588.815880790356459,517.903434553044463,529.675130815900957l75.47945412203353-145.357988827590816c37.26509219421132-12.467837401385623,252.894204498767067,7.655103668953416,283.738231837316562-16.204164146002768,18.022354242515576-13.94111643749784,26.637320174886554-29.251274245198147,48.938396940913663-39.058776708599908,30.22886897781791-13.293963788213659,108.877323778422578-45.428074718790413,138.677906259101292-51.628342551551214,12.824496808741969-1.014255083649914,17.007899158739747.232347077272607,14.626619290545932,13.593244826953196-3.625415661725128,20.341501477017118-58.534185281871032,68.334322756860274-75.808048522507306,83.044422000308259-10.077720831006445,8.581998798234963-20.653216072914802,17.211241513400637-31.270508274104941,25.152269448190054-9.860450864573068,7.374960986408951-19.694057182565302,16.728498619236234-29.927802015627094,23.517936387077498-4.37863678197391,2.904946568833111-24.986308742085384,10.333222937976643-26.651408058321977,13.845217261819926-1.97245828328596,4.160269737280032,2.120502446774481,24.368149575202551,2.845854163093463,30.188578326293282.53835293303564,4.319897256910735.70608553899001,2.501807222719435-3.369311372316588,2.6098617487105-1.35389252492314-2.421942794578172.227121894902666-28.054592314841102-2.06260861825649-30.634587191566425M390.3171298981988,555.181576663577289s194.439014364662398-166.606143548288856,215.077110426550462-205.416282979040261c21.127661292750417-39.730771586597257,50.748538554813422-76.408548242746292,65.960132240423263-118.460810005569328,11.475497851508408-31.723871244796101,8.453137948494259-44.981451890787866,30.373237704272469-74.344757717090943.17593428575492-.235674668238062.671289578298456-.423634500662047,1.19694241563775-.607359513842312.968289444073889-.338434377671547,2.051056367239653-.021357430833632,2.663437921095465.783557169907908l.8080307681048,1.062076019418782c9.375189111211512-12.786295065670856,6.240740461576934-28.521421890885904,19.875947388150962-37.477457801128367.733400433418865-.481721032235328,8.518719959018199.943127729520711,9.445324413663911-.827318219057815.656339732726337-1.254056156225488-.239803842458059-.358586832408037,1.672111968491663-2.96482002690118,1.359584576679481-.786006836433444,2.619066114511952-.852922717934234,4.433777360551176.311674842964749,3.020598999944923,1.938480425150374,49.986281276836962-47.046828092855321,57.794714535444655-42.35617909177472,8.777797719980299,5.27296152035251-7.065369767387892,19.937256559691377-10.876698530122667,29.123680413695183-8.316586003697012,20.045419538524584-28.465479680384306,34.083296783574042-39.42803217171604,52.952146206717771-9.985414188569848,17.186989699784135-18.159953393856995,36.920051936506752-19.017368786298903,56.923070627666675,0,0,41.995916832351213-30.123514118297862,44.849527795355243-31.770801179475711,15.933508236004855-9.197841715864342,21.286872506647342-10.301009205597438,38.980368590528087-11.324618802578698-1.305030703169905.321535675175255-41.949475172310486,17.020213533921378-42.803338453057222,17.384418829150491-3.473378993803635,1.481528776821506-1.513194990082411,4.412681404954128-4.319498780037975,6.254124307347411-1.48819328755053.976523987372275-4.740199801031849,2.561306277475524-5.494987664063956,3.144027345741051-.906278981885407.699677197176243-2.665242731844046,3.487296103412518-4.815195375707845,5.405520699689987-2.743622789144865,2.447907274643512-1.982727507653181-1.544434485630518-6.019920010447095.317386103333774-43.889276639376476,33.811346043920821-56.754467207862035,94.17636435132772-80.380240920363576,142.148635577254936-21.117102747230092,42.878400209177016-45.935207715956494,84.527485311693454-78.690733948205889,119.948437096629277,52.179006066551665-55.004555395012176,109.111309494539455-103.508173390903721,167.228498766166013-152.221369294945362,5.244673147069989-4.396027985309047,13.136413847736549-8.335628298808842,19.034222427711939-13.238036551676487l4.078761948803731-2.647607310334024c1.138650565739226-.951379160704164,2.428138888804824-2.572099116987374,4.078761948796455-3.971410965506038,19.893576187081635.668570544356953,4.034822233312298,36.330706741120594-1.128721291021066,47.219819504902262-14.515411847638461,30.610753192404445-59.311913122215628,58.275770148185984-63.822044716103846,90.403545867416142-36.088055064708897,257.072086507122549-273.130657721963871,278.894762240904129-255.94356436236194,274.714960012551273M508.390594505769513,555.181576663577289,1052.760876200634812,427.915773373818411c60.096464429432672,3.019094442674032-28.357934648771334,18.261692920144014-57.362405617775948,70.58529562138574-21.559090604157973,38.89225535528567,23.146948381290713,55.636133477019939,24.153516181275336,82.377124461604581,1.541898671501258,40.962862585491166-25.067998988401087,51.401524609493208-55.424024455391191,56.622259331026726-2.090764431017305.359576930499315-4.528189132925036,1.184460698650582-5.438349265059514,1.323803655166557-.869520669330086.133121169057631-1.846499005980149-.125598046006417-2.719174632526119,0-15.205642836390325,2.188440894251471-25.129650251434214,3.505013096755647-40.787619487986376,3.971410965508767-1.808740289816342.053876246882282-3.627636091241584-.014853248241707-5.438349265063152,0-11.297194445131026.092670686841302-26.033703618053551,1.975693309295821-36.761645675487671.85428535167739-34.412220676484139-3.597161310097363-78.801375540642766-27.544596509706025-113.499165240358707-16.80122513909555-4.338286362857616,1.343250446545426-5.356666312356538,8.090371429327206-12.779821692100086,10.16878586250823-7.251666568972723,2.030399161872992-11.187982728046336-1.130961770424619-16.046750130022701.183887696864986-8.558211122486682,2.315969957891866-31.150929133684258,10.803036322682601-39.855915049738542,14.222869368772081-51.126911303494126,20.085673027637313-14.992485246621072,37.886678639573802,14.348656966150884,56.892218573089849,3.748453578496992,2.428037179281091,20.090897425976436,17.927507032265567,16.971591176883521,5.964575665248049,8.844638470971404,31.597504636398298,53.882691719059949,94.16669990183982,91.092350189814169,96.637666827262365,4.467556095009058-1.045495126798414,2.923109942381416,8.197519304274465,2.75974802816927,9.974363350407657-.98385345245697,10.701112052402095-3.50611385092634,21.808335048825029-5.478922660706303,32.387353614962194-.21450103449024,1.150243457455872-.962439626226114,3.226866323331706-1.359587316270336,5.295214620673505-9.004720090782939,46.896653147701727-17.234924153519387,90.899302600591909-64.65192534194648,28.907131563973962,10.417976485423424-44.436919401729028-12.001018464030494-98.01966073380936-43.499912346698693-129.999738047599749-40.410796159427264-41.028119600134232-15.393018421675151,39.208691436144363-47.244217365316217,23.066767683754733-4.349876863419922-13.536404727543413-15.313850494692815-40.463518327844213-22.004293830019378-53.055840015509602-6.626463416036131-12.471902802839395-68.112566104533471-108.328320700795302-74.389511988400045-110.888380932843575-1.798511260483792-.733525067767914-3.490227098973264-.546736465044887-5.144125686445477.402122321105708l-64.742946788632253,82.025345484364152c-16.700315486561522,69.328614001420647-59.947659624643165,113.799653108146231-105.731577105629185,167.106168738433553-4.118384730328216,4.795062372942994-13.159488761759349,8.764392052426047-18.012920012984978,15.55626245264466-9.948158351303391,13.92140915273194-4.397458499249296-6.373163510979794-4.397458499249296-6.373163510979794,0,0,59.751800111639568-233.638681761069165-228.27528502223322,5.757986400507434-21.100540742148041,17.537931016904622,85.014634700442002-122.66433880781733,66.750626079477115-142.997503156801031-19.341392589281895-21.532606692071568-14.760389637135631-10.511777260056988-16.785791706227428-39.049741127244488-3.866592407226562-54.48040771484375-103.649269104003906-64.2203369140625-103.328636169433594-64.18023681640625,5.395645141601562-1.4053955078125,26.394779142660809,8.386040100867831,31.270507906862804,11.914234135731022-21.107479542840338,4.32497261106073-33.730147447819036,13.312101118432111-30.880120703679495,36.026900244223725,1.387186565348202,11.055918772246514,11.089143392291589,18.572970691358933,5.656563726352942,28.780776126421188-8.578358910417592,16.118717827304863-98.794924185188393,51.193377268355107-81.535103108255498,78.198812990360238,5.565707389855561,8.708337849735472,53.997590352888437-12.204735646248082,63.251865965084107-15.921338464884684,25.897861137509608-2.497367166157346,11.287031478789686-.236988424067022,9.60015800714973,10.009878744314847-3.47753960706541,21.124220058827632,13.768307704862309,58.082416547764296,38.661168657564303,57.455516419862761,6.012447074410375-.151417060775202,21.796129488522638-8.212195918566067,24.937724190106564-.367061192006076,3.871494433046792,9.667827426965232-33.007755977706438,56.359028418841262-7.815541106471755,68.471514046561424,19.91272776378355,9.574093825423915,50.918257141519462-17.122019140209886,71.218023245834047-23.08255603192265,10.824699074012642-3.178411900948049,20.398720233913991-2.953479843085006,30.627706906498133-5.259195918210025,2.210409374798473-.498248418061848,4.468883898401145-.801480949332472,6.79793658133076-1.323803655166557,116.152683332767083-26.048867117857299,161.121651573373128-131.105726469966612,209.515755611370878-228.998802191241339,3.623735191721607-7.330202522976833,10.829249943161813-18.817121326141205,8.797817457249039-26.514533408979332,6.137393667981087-5.9321084035073,23.583045270739603-18.191358145268168,28.43627157885021-25.147737847082681-78.03227837112172,23.41292426183827-160.436659169065933,22.595871167570294-241.311495382406974,22.519360689559107-10.135441696720591-12.266657501601003-10.873130249270616-26.104226429057235-21.484299668526546-35.728798711968921-3.499150632360397-3.17380930031868-8.972581026481748-24.815443857627542-12.948444521167403-25.839808038548654,2.355710738169364-29.673676231607715-1.433003579551041-38.003275557965026,3.140417792596963-30.210496558331215l8.179342020580407-18.55964177711121s15.554206485865507-21.705139049638092,17.674635111453426-24.634688711187664c9.492876315997819-13.115203342875247,27.614196170184186-32.859262459449383,35.327328818223577-34.552651050625173,11.97476720470695-2.629014058464236,20.969167130694586,3.453365598343225,25.40967896136226,0,3.045281690158845-2.368301544308451-55.296607750682597-28.382561599834844-101.067780816775667-67.217690079407475-36.056345215632064-30.592460388358631-90.831698483517357-63.146268089557452-114.459043709692196-104.333457158767487-3.562120584108925-6.209488733509716-18.072251465475347-32.361447482053336-1.253681405152747-30.698354871663469l123.413402561662224,60.760944979419037c19.613102418061317,44.453438361213557,93.549383019018023,98.261173373677593,136.370836879596936,122.054476767007145,8.208821702482965,4.561147921429438,33.91426099400087,20.450304195761419,37.902804148514406,8.574524206827846,5.400217236193384-16.079001606624843-6.83750494618198-34.036994943887294,21.506932514162145-26.048512215566916,19.677805823056588,13.267473213773883,41.150975923159422,30.600453115264827,59.141154737582838,46.262008433205665,1.083685760487242,2.303637977956896,3.442803882730004-.160694014147339,3.366322218970708-.670137308111407-.463517886127192-3.087486165140035-33.428796738493475-43.151399425202726-38.33299658134456-50.014155201923131-26.143213176194877-36.583845070813368-49.172426367515072-78.036215078152964-79.917560342110846-110.827850909055087-12.572281591618776-18.023919383648717-50.743359377616798-60.677051440752621-76.136889710883224-41.037913310207841l9.290942893044303-10.172028395551933c3.81182297187479-10.696416117647459-27.85071388239794-29.31858252715756-36.482689218353698-30.86588491465227-53.237252838115637-58.643430277010339,48.73357355371445-1.94315828604158,53.800470643652261-17.809113011929185,1.096531779231555-3.433565603583702-5.328299279567545-28.549182781755917-7.193049535254431-33.528740436601765-2.881192510754772-7.693826118719699-29.477426310186274-46.129917618402033-24.847885893991588-50.592909446638259,3.610845617545237-3.480944766724861,39.530406009638682,24.384497225788436,44.734359416506777,28.582230698792955,91.227499699021791,73.588039554593706,92.354146217215202,120.75985801637853,140.59427748811504,215.432660304312776,11.456744914023147,22.48422874345124,45.537946903301417,53.327756001440321,34.661248373177841,100.669832718321231" style="fill: url(#uuid-83812329-e283-418d-90e2-f133c67cabe9);"/>
    <path d="M245.836544826718637,621.410206728640333c80.874836213341041.076510478007549,163.279217011285255.893563572273706,241.311495382406065-22.519360689570021-4.853226308116064,6.956379701816331-10.84219453057176,13.939644975718693-16.979588198554666,19.87175337923145-60.266188134643926,58.250387773923649-224.738656395798898,143.64514892243642-310.33286155620317,125.437267218949273-12.76047281636329-2.714449875262289-35.891804910292194-16.436443038104699-41.113938533167129-28.053786001060871-11.575626589054991-25.751547893592942-.862306347762569-63.100313475451912-9.774111543634717-69.379002262177892-4.919940584613869-3.466275922894056-25.379970336945917-12.564175616034845-30.775614833082727-11.158776076390495-10.402193292882657-9.984625542469075-25.547091157614886-18.088093677752113-34.322449694732313-29.997712363305254-16.198918713602325-21.984622529242188-18.924742312183298-49.11566288222275,7.566082750965506-64.952406170924405,25.617773115942327-15.31481543132486,79.0392904870032-8.499579476482722,44.866381436763731-50.304538896380109l-2.775474456138909-21.78836264158781c3.458549814899925-78.83176431847005,238.157061337406958-7.929570966687606,207.628749654886633-16.681186512700151-4.575744885633867,2.937674151283318-33.725481895658959-3.12680527995326-61.667292497141716,65.027127643758831" style="fill: url(#uuid-d7b844d4-a8d2-4211-b04f-c68ba2dbf626);"/>
    <line x1="202.759065199907127" y1="620.291005270653841" x2="159.252271079403727" y2="589.8435212017921" style="fill: url(#uuid-ae408017-2df2-4b25-b422-dec7443a64ae);"/>
    <path d="M361.830781203006154,945.946704441967086c-8.27857436843351-16.973196043938515-12.351181387497491-54.325008295934822-2.514661913880445-70.624365503741501,4.305146250603684-7.133734321243537,13.894535282650395-10.761200079701666,18.012920012984978-15.55626245264466,45.78391748098602-53.306515630287322,89.031261619061297-97.777554737012906,105.731577105627366-167.106168738433553l69.14040528788064-75.652181973384359c1.653898587475851-.948858786150595,3.345614425958047-1.135647388873622,5.144125686445477-.402122321105708,6.276945883862936,2.560060232048272,67.763048572360276,98.41647813000418,74.389511988400045,110.888380932843575,6.690443335326563,12.59232168766539,13.978756017470005,26.202821881250202,18.328632880889927,39.739226608793615,22.566195963794598,70.223864104433233-1.842817044704134,155.882910796821307-93.748260930336983,129.009257562038329-14.746409799925459-4.31193068295579-30.749462248360032-19.436623940433492-44.969696014250985-15.852729709229607-11.054918412910411,2.786146766547972-28.120355980461682,36.598899115260792-36.082120861000476,46.933057304448084-4.401833329040528,5.713462106363295-23.091877996497715,21.33380269011468-23.69967036921571,25.242926566254027-26.744900959033657,16.369335347337255-72.688177939131492,28.32674275788122-89.732762873543834-6.619018275838243Z" style="fill: url(#uuid-c6229dab-88c6-444b-a97a-2906d2cfa2f1);"/>
    <path d="M650.063292251354142,767.233210994294495c31.851198943644704,16.14192375238963,9.878029226656508-57.580945189212798,50.28882538608741-16.552825589078566,31.498893882660923,31.980077313790389,59.379025186728541,92.582038807629942,48.961048701312393,137.018958209358971-7.245410848176107,30.90463280880067-44.029259754766827,58.05911810010366-77.496477027150831,54.275949861890695-1.117516549009451-1.973163915283294-3.581175863844692-1.253316972824905-5.438349265063152-1.323803655175652-17.96822551015066-.681961416781633-91.254310028107284-37.931778442163704-99.242189448577847-34.403153981567812-.66874526958054.295416441824273-1.164799709807994,9.571112815421657-4.301454165986797,13.673422907593704-14.866249321610667,19.442997460095285-32.970979292522316-2.069619299722035-35.12278430913284-.444059462863152-1.268895337007052.958574443826365-5.703029175833763,25.079967091876824-7.526199487639133,30.404398794891677-11.785687152279024,34.419212461443749-34.934602391739645,92.197279135831195-61.309930846817224,117.693405835450903-10.35275764171638,10.007656244861209-24.610394831181111,22.880078975755168-23.593604239296837-1.782172421599171,1.001467397246415-24.290587377796328,14.620731694646565-55.220544113884898,17.452172298300866-80.97888716927082,1.135552568282037-10.33041363241864-2.064677848314204-26.499625636641213-1.170805770840161-32.248721606119943.607792372717995-3.909123876139347,19.297837040175182-19.529464459890733,23.69967036921571-25.242926566254027,7.961764880538794-10.334158189187292,25.027202448090065-44.146910537900112,36.082120861000476-46.933057304448084,14.220233765890953-3.583894231203885,30.223286214325526,11.540799026273817,44.969696014250985,15.852729709229607,91.905443885632849,26.873653234782978,116.314456894131581-58.785393457605096,93.748260930336983-129.009257562038329Z" style="fill: url(#uuid-7a99321e-1328-4b42-bbad-d4c158199206);"/>
    <path d="M722.121420013434545,714.281064787575815c3.119306249100191,11.962931367017518-15.179387825755839-2.308856767253019-18.927841404252831-4.73689394653411-29.341142212779232-19.005539933516047-64.221152130987321-38.789899551658891-13.094240827493195-58.875572579296204,8.704985916050646-3.419833046089479,31.29770392725186-11.906899410880214,39.855915049734904-14.222869368772081,4.858767401972727-1.314849467289605,8.795083561049978,1.846511465008007,16.046750130022701-.183887696864986,7.423155379747186-2.078414433181024,8.441535329246108-8.825535415962804,12.779821692107362-10.16878586250823,34.697789699712303-10.743371370610475,79.086944563867291,13.204063828998187,113.499165240358707,16.80122513909555,10.727942057430482,1.12140795761843,26.166285319068265-.005942377343672,37.46347976420293-.098613064184974v1.323803655164738c-3.487842994443781.078214755010777-30.957659856296232-.839446017855153-31.261974099033978.653748657687174-.553364059327578,2.715220488989871,44.043508065627975,20.943743147656278,50.29619652675683,25.822324445673075,3.790461594304361,2.957459844632467,9.73845775245718,8.967932892281169,12.236285846393002,13.238036551678306,17.355867233567551,29.670317331263504,7.041884916954587,58.648613681589268-28.551333641586098,64.866379103226791-5.888714161374082-.878601058611821-25.315660049374856-1.226586032757041-28.551333641578822,3.971410965505129-.04497204859581-1.987657307598056.642095386891015-3.515842967379285,1.36128881613331-5.279693908105401-20.35231963957267-2.854547774322782-157.855899917376519-54.926695899583137-165.874402626377559-47.66477945486622-.55625154369045.503766398680455,2.235683280876401,12.816001738954583,2.722223174612736,14.554167363101442Z" style="fill: url(#uuid-6dbdc87b-96a7-484c-b1e0-462ed5a64836);"/>
    <path d="M722.121420013434545,714.281064787575815c-.486539893736335-1.738165624146859-3.278474718303187-14.050400964420987-2.722223174612736-14.554167363101442,8.018502709001041-7.261916444716917,145.52208298680489,44.810231680543438,165.874402626377559,47.66477945486622-.719193429242296,1.763850940726115-1.40626086472912,3.292036600507345-1.36128881613331,5.279693908105401.835660631619248,36.934207206955762-35.092216228757025,60.611855775532604-70.698540445817343,58.247360827392185-37.209658470746945-2.470966925422545-82.24771171883549-65.040162190864066-91.092350189814169-96.637666827262365Z" style="fill: url(#uuid-3c365881-bc9d-4ab3-b9f3-ebe9bce23b0a);"/>
    <path d="M941.014977932230977,683.833580718714074c20.437724054645514,30.12542795918489,177.459089386527921,111.448623884998597,40.501034389511915,85.664378079709422-21.304925933371123-4.010946615308058-50.293283827020787-17.999127985520317-69.052368031098013-20.797998976482631,35.593218558540684-6.217765421637523,45.907200875153649-35.196061771963286,28.551333641586098-64.866379103226791Z" style="fill: url(#uuid-dc99e0a8-1767-43d3-a32d-def52dbd2bcb);"/>
    <path d="M964.127962308750284,637.500452787835457l-5.438349265063152,1.323803655166557c.910160132134479-.139342956515975,3.347584834045847-.964226724667242,5.438349265063152-1.323803655166557Z" style="fill: #5d6591;"/>
    <path d="M809.135008254448621,858.575663200881536c.397147690036945-2.068348297341799,1.145086281772819-4.144971163217633,1.359587316266698-5.295214620673505l-1.359587316266698,5.295214620673505Z" style="fill: #5c5f89;"/>
    <path d="M671.816689311603113,941.975293476465595c-1.794272779432504-.202826417707911-4.308437570714887.74360711477857-5.438349265063152-1.323803655175652,1.857173401218461.070486682350747,4.320832716053701-.649360260107642,5.438349265063152,1.323803655175652Z" style="fill: #5e5f87;"/>
    <path d="M239.467922739085225,879.756521683566461l-6.79793658132985,1.323803655166557c-10.228986672585052,2.305716075125019-19.803007832485491,2.080784017261976-30.627706906505409,5.259195918210025-20.299766104309128,5.960536891712763-51.305295482043221,32.656649857346565-71.218023245834047,23.08255603192265-25.192214871229226-12.112485627720162,11.687035539524004-58.803686619596192,7.815541106471755-68.471514046561424-3.141594701583927-7.845134726559991-18.92527711569619.215644131230874-24.937724190099289.367061192006076-24.89286095270927.626900127901536-42.138708264631532-36.331296361035129-38.661168657566122-57.455516419862761,1.686873471639956-10.246867168381868,16.297703130359878-12.507245910472193-9.600158007155187-10.009878744314847,7.124621060314894-2.861313821209478,32.986742233778386-10.957804857322117,35.423582894053652-15.151385235776615,6.216081368474079-10.697308725450057-1.38140821025172-46.967189406648686,17.600322440310265-43.095975591610113,5.222133622876754,11.617342962956172,27.680193224002323,26.085150516424619,40.440666040364704,28.799600391692366,85.594205160408819,18.207881703490784,250.066673421559244-67.186879445027444,310.332861556210446-125.437267218956549,2.031432485918231,7.697412082838127-5.174082265521974,19.184330886002499-8.797817457242672,26.514533408979332-48.394104037999568,97.893075721274727-104.819755658910253,208.225919541248004-220.972438991678246,234.274786659105303Z" style="fill: url(#uuid-8b70554e-9eda-461c-b952-088ade9cc4d2);"/>
    <path d="M108.947540377570476,646.767078374012272c19.088192328290461,13.812672846634086-2.058515375192655,43.086242175140796,9.517111213860517,68.837790068733739-18.981730650561985-3.871213815038573-11.384241071836186,32.398666866160056-17.600322440310265,43.095975591610113-2.436840660275266,4.193580378454499-28.298961833738758,12.290071414567137-35.423582894053652,15.151385235776615-9.25427561219567,3.716602818636602-57.686158575223999,24.629676314620156-63.251865965077741,15.921338464884684-17.259821076934713-27.005435722005132,72.95674419783154-62.080095163055375,81.535103108249132-78.198812990360238,5.432579665943194-10.207805435062255-4.269377161004741-17.724857354174674-5.656563726352942-28.780776126421188-2.850026744134084-22.714799125791615,9.772641160845524-31.701927633162995,30.880120703684952-36.026900244223725Z" style="fill: url(#uuid-af98e8bf-66d2-4bd4-9f0e-41727d7b1553);"/>
    <path d="M316.070174562583816,621.061607560419361c9.027840316540278-.066579871603608-71.161851794596259.551475831232892-71.161851794596259.551475831232892,0,0-112.302958187662625-5.456534112414374-129.977557684395833-1.322078120998412,41.142339844131129-9.624047973522465,96.699071996993553,15.893559214509878,117.739221074163652-70.161593723902115-2.313156483889543,9.460913716040523,6.79793658132985-33.218188190268847,6.79793658132985-33.218188190268847,0,0,1.825361706458352,104.701860035169375,76.602251823498591,104.150384203936483Z" style="fill: url(#uuid-2b394426-1d69-416d-a68d-dae45abeac96);"/>
    <g>
      <path d="M517.80514972815854,529.630792484105768c-9.640716446487204-6.629724238055132-30.671366244963792-6.415769139957774-43.493703885773357-6.265361648010185-2.60271494781955.030992706113466,14.726333452565086-22.335408382718924,15.320543089605962-24.46271823056577,5.960090976438551-21.233957352585094-5.494792410529953-22.363247107915413-5.22031568804141-40.499533713779783.084474932066769-5.581754128415923-2.824766494311007-12.907676644620551-5.225775734188574-18.779186525788646-17.308646215664339-47.160696970270692-54.718362279794746-94.740447186396523-53.574419491006665-145.836306519503523.487569512342816-7.334748071843023,1.721442521060453-17.372690529126885,2.358405092103567-24.622052438868195.306791105852426-3.442383312878519.460634933455367-6.242907408713108.367138041929138-7.853250523168754-.072943108570144-1.359991983649707,1.066596338278032-2.490365584431856,1.929588615365901-3.625011395093679,12.154243738547848-14.654734418490989,22.624497819989301-24.311593301708854,38.665789178135128-33.979707998021695,10.305972328905227-6.501899412622151,21.697436723460669-10.744085498562526,31.135783154165438-17.844797261454914,6.225352861872125-4.582895697944878,12.947258379510458-10.817056977806715,18.612371125439495-16.387949615894286,11.403373811054735-10.355049368792606,23.041450338047071-20.136265820928202,32.357515864858215-32.383800421932392.982640121495933-1.192210495969448,2.222729436492955-2.228932701549638,3.564469909753825-3.057801293780358,8.480796314732288-5.245580057794541,15.53999785959968-8.61520583067886,25.826750097086915-10.040700771185584,8.56905280949286-1.234726761770617,16.977526995382505.206764426846348,27.165810704733303,1.336713386895099,4.596254944655811.580416736243023,8.960866492510831,1.16524530431343,12.440166109867278,1.523364310772195,3.990965283439436.37081638795371,6.113844279618206.631298709579823,7.636206316470634-.05935307060281,11.650282697017246-7.150007204550093,24.122638858752907-18.111497620874616,36.679710840286134-24.692542354675425,24.109925814896997-12.342438881555609,54.259207573686581-20.483066411791697,77.471999436194892-4.86071796620854,1.895386227253766,3.999249547739055-8.498896281358611,5.147474231073829-11.078481433229172,6.939042177958981-5.005310507938702,3.044622130213611-8.26583919901168,7.835396433551978-11.233416032857349,12.676660850814187-5.645525538759102,9.210033450822266-4.202912271895912,6.565996925466607-5.645525538759102,9.210033450822266l-4.333675838148338,7.942805926073561-3.136062287860113,4.189378798453617c-1.031910744059132,1.37850099782645-2.902840987746458,3.648002058594102-4.681549028005975,5.077228115302205-.943511364810547.758129494481182-4.333675838141062,2.233914166707109-7.307767099617195,5.957104444556535-2.612974419851525,3.271117158475136-4.276568003784632,5.508289020200209-7.164581451834238,12.125591238393099-4.293150940266059,9.709882508159353-6.318738642039534,18.497449630785923-9.207401029423636,29.103383382807806-2.793607176539808,10.568551992896573-7.32020775572164,24.225279898466397-12.22484482717482,34.967297832225995-16.234536351781571,36.406243380438355-41.178601366049406,68.561166456312094-59.971850274007011,103.668556579746109-20.956504279827641,38.920359220666796-36.551240296794276,80.273483184963879-55.134113626740145,120.204799918938079-3.484019475763489,4.355485014252736-8.027794289519079,14.7799326392078-11.946585497090382,22.118963515905307-2.76894330788582,5.495763642486963-5.301628195699777,10.581395313804933-8.090203311187906,16.079980122357483-5.797714126935716,10.877041275290139-10.8633740964342,22.385898048474701-12.763690676164515,22.174226028307203" style="fill: url(#uuid-433a5045-0de8-4cb3-a6cd-16c3fcb075dc);"/>
      <path d="M243.546684687885318,217.854694099602057c8.631975335961215,1.54730238749471,40.294512190234855,20.169468797004811,36.482689218353698,30.86588491465227l-9.290942893037936,10.172028395551933c-16.569977170908714,12.815077943419055,1.792351637935099,48.072576616947117,13.595873162656972,59.571164482558743,24.180685754759907,39.440710532527191,79.611177822208447,77.182034429620217,118.284096515121746,103.256685103098789-28.344437460337758-7.988482728320378-16.106715277963303,9.969510608942073-21.506932514155778,26.048512215566916-3.988543154513536,11.875779988933573-29.693982446032351-4.013376285398408-37.902804148515315-8.574524206827846-42.821453860578913-23.793303393329552-116.75773446153562-77.601038405793588-136.370836879602393-122.054476767007145-13.584264373152109-30.788971888422566-19.010493673543351-109.273102161375391,36.708857539179007-99.28527413759366Z" style="fill: url(#uuid-c4b15665-e485-4707-9df2-3c11bf52bfc8);"/>
      <path d="M545.375068898887548,159.607333272210781c-8.841993121252926,6.802767645440326-20.657116341404617,21.126211182841871-27.191746325317581,30.44748406886265-2.52384814094421,2.30345341481916-4.95696971074085,5.027119435396344-6.797936581325303,6.619018275839153l-36.708857539177188,23.828465793022588c-20.149832225424689,11.293382587527958-31.766468602093482,21.868770084050084-46.225968753040434,39.714109655038556-.95232615664554-3.260268526506479-12.8021874211463-16.063970149263696-15.483396295370767-21.328719398825342-14.906579557256009-29.270156567014965-16.638406662108537-82.99571711335193,16.386442375911429-101.568109617634036,20.602590838090691-11.586408864714031,22.440573694012528,6.222388672421403,33.771553415802373,5.200914273747003,17.324989450985413-1.561827274968891-.39350988058959-22.960459784978411.686598701073308-23.945762865820143.58495954807313-.533615281520724,7.383514572330569,2.598857768553898,9.385207754742623,1.191782181226699,4.307561024711504-3.027968527865596-4.249407991310363-49.203319080181245-5.979405060796125-56.815078302935035-2.429343689122106-10.688792228047532-34.300950032928995-89.704117802115434.611710132152439-53.5477979100433,34.414076811128325,35.639975988370679,60.347316579722246,104.427220582841073,77.545798175345226,150.203693847521208Z" style="fill: url(#uuid-9b7085ca-2200-4d4e-83e7-89b30e8590a0);"/>
      <path d="M552.173005480217398,155.63592230670838c-9.557504767210048,13.204546969407602-21.999822384507752,23.476047596423086-33.989682906647431,34.41889503436505,6.534629983912964-9.321272886020779,18.349753204064655-23.644716423422324,27.191746325317581-30.44748406886265,2.501868144263426-1.924863255550918,4.687262647075841-2.628101384801084,6.79793658132985-3.9714109655024Z" style="fill: #baca46;"/>
      <path d="M841.765103844827536,239.035552582286073c28.126720766460494-5.373489308775788,30.353214791524806,15.625392265691517,24.472571692786005,37.066502344702712-.848654554221866.847566792387624-1.993521902932116,1.843350181457026-2.719174632533395,2.647607310336753-14.646948412275378,16.233540089146118-5.698698147836694,29.882306799535399,16.315047795189457,25.152269448191873,8.350579163296061-1.794267611243413,47.667617376500857-21.605044908581476,52.997732192150579-17.180632965625591.640621461348928.531765889211783,2.518233852097183,14.919920866509528,2.416564755993022,16.223577672185456-.564259834780387,7.235248486956152-7.377987497729919,16.33245947091018-10.595989750774606,22.753819279157142-1.301166114222724,2.596410795479642-3.006415186635422,3.70252127402,1.40766155566962,3.355505462473047-22.301076766027109,9.807502463401761-30.916042698398087,25.117660271102068-48.938396940910025,39.058776708599908-30.844027338549495,23.859267814956183-67.421786186303507,46.451201689127629-104.686878380511189,58.919039090517799l-41.527421349648648,19.905959630520556c-1.491646583584952.158156957816573-24.670063560941344,1.617537796598299-24.670063560941344,1.617537796598299,0,0,6.486092904578982-4.173365017695687,17.163034841170884-22.988455491145942,16.019709163920197-28.230206651617664,36.11903852010073-52.953403903714388,54.464707917864871-84.033754368965674,6.125924622239836-10.378246770658734,28.051100084674545-47.553231511301419,8.157523897596548-48.221802055658372,20.690789060870884-17.540568158720816,36.530165951669915-36.72360744987509,55.743079966898222-54.275949861887966Z" style="fill: url(#uuid-5f3288c6-7208-48cb-99ab-782d53be33c6);"/>
      <path d="M800.482970071458112,171.234238021828787c8.813828702288447-1.916049717889109,47.513207114443503-5.134019241912938,47.515470966067369,8.336425961208079.000564200268855,3.357123173102082-32.223553894509678,50.008323752011165-36.963711770251393,56.681297107979844-10.349853999116021,14.5700421346246-55.050605457854545,64.471543390909574-59.29629477407434,74.64523098470454-2.636838839931443,6.318496855218655,2.025130087171419,3.17866107820555,7.091843059413804,2.271365195969338-58.117189271622919,48.71319590404164-115.04949269961071,97.216813899933186-167.228498766162375,152.221369294945362,32.755526232249395-35.420951784935824,57.573631200979435-77.070036887452261,78.690733948202251-119.948437096629277,23.625773712501541-47.972271225927216,21.892479139503848-102.487629487780396,65.565587557375693-136.082328270756079,11.374977079165546-8.749982368588462,34.177475199434411-24.226993836839938,39.287225055773888-27.247165789182873,5.75507425032265-3.401597793077599,13.837667896368657-8.377762425784567,25.337644723655103-10.877757388238933Z" style="fill: url(#uuid-4d7cfed6-b62e-4c34-ac4c-7ec9fd54d597);"/>
      <path d="M284.334304175858051,318.463771892365003c-1.361311063669746-2.220411619069637-12.103682494848726-22.233637444782289-13.165338727096241-24.909566180966976-7.859196131063072-19.809283016200425-5.36385769244589-37.274487345322996,20.676753201574684-36.024008499204683,14.286820600677856.686057904405061,44.56403189032244,31.238128979698558,55.029602073746901,42.400323507820758,30.745133974590317,32.791635830902123,53.774347165910513,74.244005838241719,79.917560342110846,110.827850909055087,4.904199842845628,6.862755776720405,37.86947869521191,46.926669036783096,38.33299658134456,50.014155201923131.076481663753839.509443293964068-2.282636458483466,2.973775286068303-3.36632221896889.670137308111407-17.990178814425235-15.661555317940838-39.463348914528069-26.454733929866052-59.141154737590114-39.722207143639935-38.672918692913299-26.074650673478573-94.103410760361839-63.815974570571598-118.284096515121746-103.256685103098789Z" style="fill: url(#uuid-c9536baa-eecc-4b78-94dd-49652d3ca36b);"/>
      <path d="M965.487549625013344,448.196530098822222c-12.468863021476864-.657675934288818-27.75335375470604-10.888789268674373-23.890678414612921-24.317447476798407.375166840371094-1.304274065726531,1.197725419260678-2.43135674468067,2.319589078651916-3.195099454221236,6.678012799271528-4.546259741059657,7.283204493793164-4.63891142673674,13.752692950609344-9.700228246651022,2.810285010247753-2.198588479765021,6.543624183199427-1.092997706568895,8.616510942902096,1.811246364381077,8.461715369150625,11.855392763699456,9.982192748710077,9.540605556135233,16.224131319646403,13.295029195163806,3.490171139615995,2.099280677292882.929522653193999,8.484778360098971-2.3059734425442,10.958609187041475-5.980465971464582,4.572609776653735-3.172151185994153,2.764758149868612-9.277923169585847,7.176479465578268" style="fill: #1d4978;"/>
      <path d="M941.841434487119841,467.039047501588357s-12.459993078027765,8.481996511030047-15.730977691193402.824377091719725c-3.452991261256102-8.08371058380726-7.771425348451885-14.197395641343064-9.127721474116697-15.504753043544952-5.809296841074683-5.599682166068305-3.220378600883123-14.628375988737389.288531509122549-17.609313057198051,2.997196046977479-2.546218773859437,20.767148653616459-10.330798832592336,25.145785435601283-13.235745401427266-6.266543094065128,14.477210009336886,9.984035647856217,25.783580643827918,23.112984376515669,26.47607310335934" style="fill: #242f5f;"/>
      <path d="M346.875320724083394,299.930520720014101c-10.465570183424461-11.1621945281222-40.742781473069044-41.714265603415697-55.029602073746901-42.400323507820758-26.040610894020574-1.250478846118313-28.535949332637756,16.214725483004258-20.676753201574684,36.024008499204683,1.061656232247515,2.675928736184687,11.804027663426496,22.68915456189734,13.165338727096241,24.909566180966976-11.803521524721873-11.498587865611626-30.165850333565686-46.756086539139687-13.595873162656972-59.571164482558743,25.39353033326006-19.639138130544779,63.564608119258082,23.013993926559124,76.136889710882315,41.037913310207841Z" style="fill: #a8c652;"/>
      <path d="M970.925898890080134,444.225119133316184c-1.623351888756588,1.172951782314158-3.070249314761895,1.921828373754579-4.078761948800093,2.647607310336753l4.078761948800093-2.647607310336753Z" style="fill: #242f5f;"/>
      <path d="M781.943261929129221,297.282913409680077l-4.078761948796455,2.647607310334024c1.84529814941925-1.533858678867546,3.577041055061272-2.228403370902015,4.078761948796455-2.647607310334024Z" style="fill: #242b58;"/>
      <path d="M866.237675537613541,276.102054926988785c5.880643098738801-21.441110079011196,3.654149073674489-42.439991653478501-24.472571692786005-37.066502344702712,10.571383631406206-9.657699249580219,20.842962522510788-17.670101743482519,32.765395918555441-25.682431984843788,9.321123169429484-6.264150494528621,76.172913579212036-51.016331262018866,70.250568606308661-17.666739177814634-4.443632714715932,25.022746747310521-60.259174289887596,62.154890737754613-78.543392832078098,80.415673507361134Z" style="fill: url(#uuid-e5f965b8-4ab0-4287-8ccd-1313d242e70e);"/>
      <path d="M879.833548700269603,303.901931685517411c-22.013745943026152,4.730037351343526-30.961996207464836-8.918729359045756-16.315047795189457-25.152269448191873.581463699516462,10.399991025898089.359031463704014,28.546122580328301,16.315047795189457,25.152269448191873Z" style="fill: #1d6490;"/>
      <path d="M511.385385992244665,196.673835616912584c-18.545280920567166,16.036253375780689-16.930638423071287,12.743361317749986-36.708857539177188,23.828465793022588l36.708857539177188-23.828465793022588Z" style="fill: #baca46;"/>
    </g>
    <path d="M239.467922739085225,879.756521683566461c-2.329052682935981.522322705834085-4.587527206538653.825555237104709-6.79793658132985,1.323803655166557l6.79793658132985-1.323803655166557Z" style="fill: #238caa;"/>
    <path d="M915.182818923178274,642.795667408510781c-1.110496562872868,1.950916282668913-3.577562478276377,1.282075577702926-5.438349265063152,1.323803655164738v-1.323803655164738c1.810713173817931-.014853248241707,3.629608975239535.053876246882282,5.438349265063152,0Z" style="fill: #1b4577;"/>
  </g>
  <path d="M583.262467798333091,516.39195108351305c35.773449272997823,46.747600934668299-17.734602146691032,134.892917948516697-92.454580902275666,85.530788313461017" style="fill: url(#uuid-6a6bf281-03b6-43d9-8634-7ccf0973399c);"/>
  <path d="M490.807886896057425,601.922739396974066c-65.056397726143587-79.240479010113631,32.420787957003085-163.766854269993928,92.454580902275666-85.530788313461017" style="fill: url(#uuid-1c229d57-0d26-41e7-9f13-766a5f9d491a);"/>
</svg>